<svg width="239" height="225" viewBox="0 0 239 225" fill="none" xmlns="http://www.w3.org/2000/svg">
<g clip-path="url(#clip0_22_3234)">
<path d="M3.11247 6.20301C4.83144 6.20301 6.22494 4.81442 6.22494 3.1015C6.22494 1.38859 4.83144 0 3.11247 0C1.3935 0 0 1.38859 0 3.1015C0 4.81442 1.3935 6.20301 3.11247 6.20301Z" fill="#272727"/>
<path d="M17.66 6.20301C19.3789 6.20301 20.7724 4.81442 20.7724 3.1015C20.7724 1.38859 19.3789 0 17.66 0C15.941 0 14.5475 1.38859 14.5475 3.1015C14.5475 4.81442 15.941 6.20301 17.66 6.20301Z" fill="#272727"/>
<path d="M32.2094 6.20301C33.9283 6.20301 35.3218 4.81442 35.3218 3.1015C35.3218 1.38859 33.9283 0 32.2094 0C30.4904 0 29.0969 1.38859 29.0969 3.1015C29.0969 4.81442 30.4904 6.20301 32.2094 6.20301Z" fill="#272727"/>
<path d="M46.7587 6.20301C48.4777 6.20301 49.8712 4.81442 49.8712 3.1015C49.8712 1.38859 48.4777 0 46.7587 0C45.0398 0 43.6463 1.38859 43.6463 3.1015C43.6463 4.81442 45.0398 6.20301 46.7587 6.20301Z" fill="#272727"/>
<path d="M61.3062 6.20301C63.0252 6.20301 64.4187 4.81442 64.4187 3.1015C64.4187 1.38859 63.0252 0 61.3062 0C59.5873 0 58.1938 1.38859 58.1938 3.1015C58.1938 4.81442 59.5873 6.20301 61.3062 6.20301Z" fill="#272727"/>
<path d="M75.8537 6.20301C77.5727 6.20301 78.9662 4.81442 78.9662 3.1015C78.9662 1.38859 77.5727 0 75.8537 0C74.1348 0 72.7413 1.38859 72.7413 3.1015C72.7413 4.81442 74.1348 6.20301 75.8537 6.20301Z" fill="#272727"/>
<path d="M90.4031 6.20301C92.1221 6.20301 93.5156 4.81442 93.5156 3.1015C93.5156 1.38859 92.1221 0 90.4031 0C88.6841 0 87.2906 1.38859 87.2906 3.1015C87.2906 4.81442 88.6841 6.20301 90.4031 6.20301Z" fill="#272727"/>
<path d="M104.952 6.20301C106.671 6.20301 108.065 4.81442 108.065 3.1015C108.065 1.38859 106.671 0 104.952 0C103.234 0 101.84 1.38859 101.84 3.1015C101.84 4.81442 103.234 6.20301 104.952 6.20301Z" fill="#272727"/>
<path d="M119.5 6.20301C121.219 6.20301 122.612 4.81442 122.612 3.1015C122.612 1.38859 121.219 0 119.5 0C117.781 0 116.388 1.38859 116.388 3.1015C116.388 4.81442 117.781 6.20301 119.5 6.20301Z" fill="#272727"/>
<path d="M134.047 6.20301C135.766 6.20301 137.16 4.81442 137.16 3.1015C137.16 1.38859 135.766 0 134.047 0C132.329 0 130.935 1.38859 130.935 3.1015C130.935 4.81442 132.329 6.20301 134.047 6.20301Z" fill="#272727"/>
<path d="M148.597 6.20301C150.316 6.20301 151.709 4.81442 151.709 3.1015C151.709 1.38859 150.316 0 148.597 0C146.878 0 145.484 1.38859 145.484 3.1015C145.484 4.81442 146.878 6.20301 148.597 6.20301Z" fill="#272727"/>
<path d="M163.146 6.20301C164.865 6.20301 166.259 4.81442 166.259 3.1015C166.259 1.38859 164.865 0 163.146 0C161.427 0 160.034 1.38859 160.034 3.1015C160.034 4.81442 161.427 6.20301 163.146 6.20301Z" fill="#272727"/>
<path d="M177.694 6.20301C179.413 6.20301 180.806 4.81442 180.806 3.1015C180.806 1.38859 179.413 0 177.694 0C175.975 0 174.581 1.38859 174.581 3.1015C174.581 4.81442 175.975 6.20301 177.694 6.20301Z" fill="#272727"/>
<path d="M192.241 6.20301C193.96 6.20301 195.354 4.81442 195.354 3.1015C195.354 1.38859 193.96 0 192.241 0C190.522 0 189.129 1.38859 189.129 3.1015C189.129 4.81442 190.522 6.20301 192.241 6.20301Z" fill="#272727"/>
<path d="M206.791 6.20301C208.51 6.20301 209.903 4.81442 209.903 3.1015C209.903 1.38859 208.51 0 206.791 0C205.072 0 203.678 1.38859 203.678 3.1015C203.678 4.81442 205.072 6.20301 206.791 6.20301Z" fill="#272727"/>
<path d="M221.34 6.20301C223.059 6.20301 224.453 4.81442 224.453 3.1015C224.453 1.38859 223.059 0 221.34 0C219.621 0 218.228 1.38859 218.228 3.1015C218.228 4.81442 219.621 6.20301 221.34 6.20301Z" fill="#272727"/>
<path d="M235.888 6.20301C237.607 6.20301 239 4.81442 239 3.1015C239 1.38859 237.607 0 235.888 0C234.169 0 232.775 1.38859 232.775 3.1015C232.775 4.81442 234.169 6.20301 235.888 6.20301Z" fill="#272727"/>
<path d="M3.11247 19.8778C4.83144 19.8778 6.22494 18.4892 6.22494 16.7763C6.22494 15.0634 4.83144 13.6748 3.11247 13.6748C1.3935 13.6748 0 15.0634 0 16.7763C0 18.4892 1.3935 19.8778 3.11247 19.8778Z" fill="#272727"/>
<path d="M17.66 19.8778C19.3789 19.8778 20.7724 18.4892 20.7724 16.7763C20.7724 15.0634 19.3789 13.6748 17.66 13.6748C15.941 13.6748 14.5475 15.0634 14.5475 16.7763C14.5475 18.4892 15.941 19.8778 17.66 19.8778Z" fill="#272727"/>
<path d="M32.2094 19.8778C33.9283 19.8778 35.3218 18.4892 35.3218 16.7763C35.3218 15.0634 33.9283 13.6748 32.2094 13.6748C30.4904 13.6748 29.0969 15.0634 29.0969 16.7763C29.0969 18.4892 30.4904 19.8778 32.2094 19.8778Z" fill="#272727"/>
<path d="M46.7587 19.8778C48.4777 19.8778 49.8712 18.4892 49.8712 16.7763C49.8712 15.0634 48.4777 13.6748 46.7587 13.6748C45.0398 13.6748 43.6463 15.0634 43.6463 16.7763C43.6463 18.4892 45.0398 19.8778 46.7587 19.8778Z" fill="#272727"/>
<path d="M61.3062 19.8778C63.0252 19.8778 64.4187 18.4892 64.4187 16.7763C64.4187 15.0634 63.0252 13.6748 61.3062 13.6748C59.5873 13.6748 58.1938 15.0634 58.1938 16.7763C58.1938 18.4892 59.5873 19.8778 61.3062 19.8778Z" fill="#272727"/>
<path d="M75.8537 19.8778C77.5727 19.8778 78.9662 18.4892 78.9662 16.7763C78.9662 15.0634 77.5727 13.6748 75.8537 13.6748C74.1348 13.6748 72.7413 15.0634 72.7413 16.7763C72.7413 18.4892 74.1348 19.8778 75.8537 19.8778Z" fill="#272727"/>
<path d="M90.4031 19.8778C92.1221 19.8778 93.5156 18.4892 93.5156 16.7763C93.5156 15.0634 92.1221 13.6748 90.4031 13.6748C88.6841 13.6748 87.2906 15.0634 87.2906 16.7763C87.2906 18.4892 88.6841 19.8778 90.4031 19.8778Z" fill="#272727"/>
<path d="M104.952 19.8778C106.671 19.8778 108.065 18.4892 108.065 16.7763C108.065 15.0634 106.671 13.6748 104.952 13.6748C103.234 13.6748 101.84 15.0634 101.84 16.7763C101.84 18.4892 103.234 19.8778 104.952 19.8778Z" fill="#272727"/>
<path d="M119.5 19.8778C121.219 19.8778 122.612 18.4892 122.612 16.7763C122.612 15.0634 121.219 13.6748 119.5 13.6748C117.781 13.6748 116.388 15.0634 116.388 16.7763C116.388 18.4892 117.781 19.8778 119.5 19.8778Z" fill="#272727"/>
<path d="M134.047 19.8778C135.766 19.8778 137.16 18.4892 137.16 16.7763C137.16 15.0634 135.766 13.6748 134.047 13.6748C132.329 13.6748 130.935 15.0634 130.935 16.7763C130.935 18.4892 132.329 19.8778 134.047 19.8778Z" fill="#272727"/>
<path d="M148.597 19.8778C150.316 19.8778 151.709 18.4892 151.709 16.7763C151.709 15.0634 150.316 13.6748 148.597 13.6748C146.878 13.6748 145.484 15.0634 145.484 16.7763C145.484 18.4892 146.878 19.8778 148.597 19.8778Z" fill="#272727"/>
<path d="M163.146 19.8778C164.865 19.8778 166.259 18.4892 166.259 16.7763C166.259 15.0634 164.865 13.6748 163.146 13.6748C161.427 13.6748 160.034 15.0634 160.034 16.7763C160.034 18.4892 161.427 19.8778 163.146 19.8778Z" fill="#272727"/>
<path d="M177.694 19.8778C179.413 19.8778 180.806 18.4892 180.806 16.7763C180.806 15.0634 179.413 13.6748 177.694 13.6748C175.975 13.6748 174.581 15.0634 174.581 16.7763C174.581 18.4892 175.975 19.8778 177.694 19.8778Z" fill="#272727"/>
<path d="M192.241 19.8778C193.96 19.8778 195.354 18.4892 195.354 16.7763C195.354 15.0634 193.96 13.6748 192.241 13.6748C190.522 13.6748 189.129 15.0634 189.129 16.7763C189.129 18.4892 190.522 19.8778 192.241 19.8778Z" fill="#272727"/>
<path d="M206.791 19.8778C208.51 19.8778 209.903 18.4892 209.903 16.7763C209.903 15.0634 208.51 13.6748 206.791 13.6748C205.072 13.6748 203.678 15.0634 203.678 16.7763C203.678 18.4892 205.072 19.8778 206.791 19.8778Z" fill="#272727"/>
<path d="M221.34 19.8778C223.059 19.8778 224.453 18.4892 224.453 16.7763C224.453 15.0634 223.059 13.6748 221.34 13.6748C219.621 13.6748 218.228 15.0634 218.228 16.7763C218.228 18.4892 219.621 19.8778 221.34 19.8778Z" fill="#272727"/>
<path d="M235.888 19.8778C237.607 19.8778 239 18.4892 239 16.7763C239 15.0634 237.607 13.6748 235.888 13.6748C234.169 13.6748 232.775 15.0634 232.775 16.7763C232.775 18.4892 234.169 19.8778 235.888 19.8778Z" fill="#272727"/>
<path d="M3.11247 33.5526C4.83144 33.5526 6.22494 32.164 6.22494 30.4511C6.22494 28.7382 4.83144 27.3496 3.11247 27.3496C1.3935 27.3496 0 28.7382 0 30.4511C0 32.164 1.3935 33.5526 3.11247 33.5526Z" fill="#272727"/>
<path d="M17.66 33.5526C19.3789 33.5526 20.7724 32.164 20.7724 30.4511C20.7724 28.7382 19.3789 27.3496 17.66 27.3496C15.941 27.3496 14.5475 28.7382 14.5475 30.4511C14.5475 32.164 15.941 33.5526 17.66 33.5526Z" fill="#272727"/>
<path d="M32.2094 33.5526C33.9283 33.5526 35.3218 32.164 35.3218 30.4511C35.3218 28.7382 33.9283 27.3496 32.2094 27.3496C30.4904 27.3496 29.0969 28.7382 29.0969 30.4511C29.0969 32.164 30.4904 33.5526 32.2094 33.5526Z" fill="#272727"/>
<path d="M46.7587 33.5526C48.4777 33.5526 49.8712 32.164 49.8712 30.4511C49.8712 28.7382 48.4777 27.3496 46.7587 27.3496C45.0398 27.3496 43.6463 28.7382 43.6463 30.4511C43.6463 32.164 45.0398 33.5526 46.7587 33.5526Z" fill="#272727"/>
<path d="M61.3062 33.5526C63.0252 33.5526 64.4187 32.164 64.4187 30.4511C64.4187 28.7382 63.0252 27.3496 61.3062 27.3496C59.5873 27.3496 58.1938 28.7382 58.1938 30.4511C58.1938 32.164 59.5873 33.5526 61.3062 33.5526Z" fill="#272727"/>
<path d="M75.8537 33.5526C77.5727 33.5526 78.9662 32.164 78.9662 30.4511C78.9662 28.7382 77.5727 27.3496 75.8537 27.3496C74.1348 27.3496 72.7413 28.7382 72.7413 30.4511C72.7413 32.164 74.1348 33.5526 75.8537 33.5526Z" fill="#272727"/>
<path d="M90.4031 33.5526C92.1221 33.5526 93.5156 32.164 93.5156 30.4511C93.5156 28.7382 92.1221 27.3496 90.4031 27.3496C88.6841 27.3496 87.2906 28.7382 87.2906 30.4511C87.2906 32.164 88.6841 33.5526 90.4031 33.5526Z" fill="#272727"/>
<path d="M104.952 33.5526C106.671 33.5526 108.065 32.164 108.065 30.4511C108.065 28.7382 106.671 27.3496 104.952 27.3496C103.234 27.3496 101.84 28.7382 101.84 30.4511C101.84 32.164 103.234 33.5526 104.952 33.5526Z" fill="#272727"/>
<path d="M119.5 33.5526C121.219 33.5526 122.612 32.164 122.612 30.4511C122.612 28.7382 121.219 27.3496 119.5 27.3496C117.781 27.3496 116.388 28.7382 116.388 30.4511C116.388 32.164 117.781 33.5526 119.5 33.5526Z" fill="#272727"/>
<path d="M134.047 33.5526C135.766 33.5526 137.16 32.164 137.16 30.4511C137.16 28.7382 135.766 27.3496 134.047 27.3496C132.329 27.3496 130.935 28.7382 130.935 30.4511C130.935 32.164 132.329 33.5526 134.047 33.5526Z" fill="#272727"/>
<path d="M148.597 33.5526C150.316 33.5526 151.709 32.164 151.709 30.4511C151.709 28.7382 150.316 27.3496 148.597 27.3496C146.878 27.3496 145.484 28.7382 145.484 30.4511C145.484 32.164 146.878 33.5526 148.597 33.5526Z" fill="#272727"/>
<path d="M163.146 33.5526C164.865 33.5526 166.259 32.164 166.259 30.4511C166.259 28.7382 164.865 27.3496 163.146 27.3496C161.427 27.3496 160.034 28.7382 160.034 30.4511C160.034 32.164 161.427 33.5526 163.146 33.5526Z" fill="#272727"/>
<path d="M177.694 33.5526C179.413 33.5526 180.806 32.164 180.806 30.4511C180.806 28.7382 179.413 27.3496 177.694 27.3496C175.975 27.3496 174.581 28.7382 174.581 30.4511C174.581 32.164 175.975 33.5526 177.694 33.5526Z" fill="#272727"/>
<path d="M192.241 33.5526C193.96 33.5526 195.354 32.164 195.354 30.4511C195.354 28.7382 193.96 27.3496 192.241 27.3496C190.522 27.3496 189.129 28.7382 189.129 30.4511C189.129 32.164 190.522 33.5526 192.241 33.5526Z" fill="#272727"/>
<path d="M206.791 33.5526C208.51 33.5526 209.903 32.164 209.903 30.4511C209.903 28.7382 208.51 27.3496 206.791 27.3496C205.072 27.3496 203.678 28.7382 203.678 30.4511C203.678 32.164 205.072 33.5526 206.791 33.5526Z" fill="#272727"/>
<path d="M221.34 33.5526C223.059 33.5526 224.453 32.164 224.453 30.4511C224.453 28.7382 223.059 27.3496 221.34 27.3496C219.621 27.3496 218.228 28.7382 218.228 30.4511C218.228 32.164 219.621 33.5526 221.34 33.5526Z" fill="#272727"/>
<path d="M235.888 33.5526C237.607 33.5526 239 32.164 239 30.4511C239 28.7382 237.607 27.3496 235.888 27.3496C234.169 27.3496 232.775 28.7382 232.775 30.4511C232.775 32.164 234.169 33.5526 235.888 33.5526Z" fill="#272727"/>
<path d="M3.11247 47.2274C4.83144 47.2274 6.22494 45.8389 6.22494 44.1259C6.22494 42.413 4.83144 41.0244 3.11247 41.0244C1.3935 41.0244 0 42.413 0 44.1259C0 45.8389 1.3935 47.2274 3.11247 47.2274Z" fill="#272727"/>
<path d="M17.66 47.2274C19.3789 47.2274 20.7724 45.8389 20.7724 44.1259C20.7724 42.413 19.3789 41.0244 17.66 41.0244C15.941 41.0244 14.5475 42.413 14.5475 44.1259C14.5475 45.8389 15.941 47.2274 17.66 47.2274Z" fill="#272727"/>
<path d="M32.2094 47.2274C33.9283 47.2274 35.3218 45.8389 35.3218 44.1259C35.3218 42.413 33.9283 41.0244 32.2094 41.0244C30.4904 41.0244 29.0969 42.413 29.0969 44.1259C29.0969 45.8389 30.4904 47.2274 32.2094 47.2274Z" fill="#272727"/>
<path d="M46.7587 47.2274C48.4777 47.2274 49.8712 45.8389 49.8712 44.1259C49.8712 42.413 48.4777 41.0244 46.7587 41.0244C45.0398 41.0244 43.6463 42.413 43.6463 44.1259C43.6463 45.8389 45.0398 47.2274 46.7587 47.2274Z" fill="#272727"/>
<path d="M61.3062 47.2274C63.0252 47.2274 64.4187 45.8389 64.4187 44.1259C64.4187 42.413 63.0252 41.0244 61.3062 41.0244C59.5873 41.0244 58.1938 42.413 58.1938 44.1259C58.1938 45.8389 59.5873 47.2274 61.3062 47.2274Z" fill="#272727"/>
<path d="M75.8537 47.2274C77.5727 47.2274 78.9662 45.8389 78.9662 44.1259C78.9662 42.413 77.5727 41.0244 75.8537 41.0244C74.1348 41.0244 72.7413 42.413 72.7413 44.1259C72.7413 45.8389 74.1348 47.2274 75.8537 47.2274Z" fill="#272727"/>
<path d="M90.4031 47.2274C92.1221 47.2274 93.5156 45.8389 93.5156 44.1259C93.5156 42.413 92.1221 41.0244 90.4031 41.0244C88.6841 41.0244 87.2906 42.413 87.2906 44.1259C87.2906 45.8389 88.6841 47.2274 90.4031 47.2274Z" fill="#272727"/>
<path d="M104.952 47.2274C106.671 47.2274 108.065 45.8389 108.065 44.1259C108.065 42.413 106.671 41.0244 104.952 41.0244C103.234 41.0244 101.84 42.413 101.84 44.1259C101.84 45.8389 103.234 47.2274 104.952 47.2274Z" fill="#272727"/>
<path d="M119.5 47.2274C121.219 47.2274 122.612 45.8389 122.612 44.1259C122.612 42.413 121.219 41.0244 119.5 41.0244C117.781 41.0244 116.388 42.413 116.388 44.1259C116.388 45.8389 117.781 47.2274 119.5 47.2274Z" fill="#272727"/>
<path d="M134.047 47.2274C135.766 47.2274 137.16 45.8389 137.16 44.1259C137.16 42.413 135.766 41.0244 134.047 41.0244C132.329 41.0244 130.935 42.413 130.935 44.1259C130.935 45.8389 132.329 47.2274 134.047 47.2274Z" fill="#272727"/>
<path d="M148.597 47.2274C150.316 47.2274 151.709 45.8389 151.709 44.1259C151.709 42.413 150.316 41.0244 148.597 41.0244C146.878 41.0244 145.484 42.413 145.484 44.1259C145.484 45.8389 146.878 47.2274 148.597 47.2274Z" fill="#272727"/>
<path d="M163.146 47.2274C164.865 47.2274 166.259 45.8389 166.259 44.1259C166.259 42.413 164.865 41.0244 163.146 41.0244C161.427 41.0244 160.034 42.413 160.034 44.1259C160.034 45.8389 161.427 47.2274 163.146 47.2274Z" fill="#272727"/>
<path d="M177.694 47.2274C179.413 47.2274 180.806 45.8389 180.806 44.1259C180.806 42.413 179.413 41.0244 177.694 41.0244C175.975 41.0244 174.581 42.413 174.581 44.1259C174.581 45.8389 175.975 47.2274 177.694 47.2274Z" fill="#272727"/>
<path d="M192.241 47.2274C193.96 47.2274 195.354 45.8389 195.354 44.1259C195.354 42.413 193.96 41.0244 192.241 41.0244C190.522 41.0244 189.129 42.413 189.129 44.1259C189.129 45.8389 190.522 47.2274 192.241 47.2274Z" fill="#272727"/>
<path d="M206.791 47.2274C208.51 47.2274 209.903 45.8389 209.903 44.1259C209.903 42.413 208.51 41.0244 206.791 41.0244C205.072 41.0244 203.678 42.413 203.678 44.1259C203.678 45.8389 205.072 47.2274 206.791 47.2274Z" fill="#272727"/>
<path d="M221.34 47.2274C223.059 47.2274 224.453 45.8389 224.453 44.1259C224.453 42.413 223.059 41.0244 221.34 41.0244C219.621 41.0244 218.228 42.413 218.228 44.1259C218.228 45.8389 219.621 47.2274 221.34 47.2274Z" fill="#272727"/>
<path d="M235.888 47.2274C237.607 47.2274 239 45.8389 239 44.1259C239 42.413 237.607 41.0244 235.888 41.0244C234.169 41.0244 232.775 42.413 232.775 44.1259C232.775 45.8389 234.169 47.2274 235.888 47.2274Z" fill="#272727"/>
<path d="M3.11247 60.9023C4.83144 60.9023 6.22494 59.5137 6.22494 57.8008C6.22494 56.0878 4.83144 54.6992 3.11247 54.6992C1.3935 54.6992 0 56.0878 0 57.8008C0 59.5137 1.3935 60.9023 3.11247 60.9023Z" fill="#272727"/>
<path d="M17.66 60.9023C19.3789 60.9023 20.7724 59.5137 20.7724 57.8008C20.7724 56.0878 19.3789 54.6992 17.66 54.6992C15.941 54.6992 14.5475 56.0878 14.5475 57.8008C14.5475 59.5137 15.941 60.9023 17.66 60.9023Z" fill="#272727"/>
<path d="M32.2094 60.9023C33.9283 60.9023 35.3218 59.5137 35.3218 57.8008C35.3218 56.0878 33.9283 54.6992 32.2094 54.6992C30.4904 54.6992 29.0969 56.0878 29.0969 57.8008C29.0969 59.5137 30.4904 60.9023 32.2094 60.9023Z" fill="#272727"/>
<path d="M46.7587 60.9023C48.4777 60.9023 49.8712 59.5137 49.8712 57.8008C49.8712 56.0878 48.4777 54.6992 46.7587 54.6992C45.0398 54.6992 43.6463 56.0878 43.6463 57.8008C43.6463 59.5137 45.0398 60.9023 46.7587 60.9023Z" fill="#272727"/>
<path d="M61.3062 60.9023C63.0252 60.9023 64.4187 59.5137 64.4187 57.8008C64.4187 56.0878 63.0252 54.6992 61.3062 54.6992C59.5873 54.6992 58.1938 56.0878 58.1938 57.8008C58.1938 59.5137 59.5873 60.9023 61.3062 60.9023Z" fill="#272727"/>
<path d="M75.8537 60.9023C77.5727 60.9023 78.9662 59.5137 78.9662 57.8008C78.9662 56.0878 77.5727 54.6992 75.8537 54.6992C74.1348 54.6992 72.7413 56.0878 72.7413 57.8008C72.7413 59.5137 74.1348 60.9023 75.8537 60.9023Z" fill="#272727"/>
<path d="M90.4031 60.9023C92.1221 60.9023 93.5156 59.5137 93.5156 57.8008C93.5156 56.0878 92.1221 54.6992 90.4031 54.6992C88.6841 54.6992 87.2906 56.0878 87.2906 57.8008C87.2906 59.5137 88.6841 60.9023 90.4031 60.9023Z" fill="#272727"/>
<path d="M104.952 60.9023C106.671 60.9023 108.065 59.5137 108.065 57.8008C108.065 56.0878 106.671 54.6992 104.952 54.6992C103.234 54.6992 101.84 56.0878 101.84 57.8008C101.84 59.5137 103.234 60.9023 104.952 60.9023Z" fill="#272727"/>
<path d="M119.5 60.9023C121.219 60.9023 122.612 59.5137 122.612 57.8008C122.612 56.0878 121.219 54.6992 119.5 54.6992C117.781 54.6992 116.388 56.0878 116.388 57.8008C116.388 59.5137 117.781 60.9023 119.5 60.9023Z" fill="#272727"/>
<path d="M134.047 60.9023C135.766 60.9023 137.16 59.5137 137.16 57.8008C137.16 56.0878 135.766 54.6992 134.047 54.6992C132.329 54.6992 130.935 56.0878 130.935 57.8008C130.935 59.5137 132.329 60.9023 134.047 60.9023Z" fill="#272727"/>
<path d="M148.597 60.9023C150.316 60.9023 151.709 59.5137 151.709 57.8008C151.709 56.0878 150.316 54.6992 148.597 54.6992C146.878 54.6992 145.484 56.0878 145.484 57.8008C145.484 59.5137 146.878 60.9023 148.597 60.9023Z" fill="#272727"/>
<path d="M163.146 60.9023C164.865 60.9023 166.259 59.5137 166.259 57.8008C166.259 56.0878 164.865 54.6992 163.146 54.6992C161.427 54.6992 160.034 56.0878 160.034 57.8008C160.034 59.5137 161.427 60.9023 163.146 60.9023Z" fill="#272727"/>
<path d="M177.694 60.9023C179.413 60.9023 180.806 59.5137 180.806 57.8008C180.806 56.0878 179.413 54.6992 177.694 54.6992C175.975 54.6992 174.581 56.0878 174.581 57.8008C174.581 59.5137 175.975 60.9023 177.694 60.9023Z" fill="#272727"/>
<path d="M192.241 60.9023C193.96 60.9023 195.354 59.5137 195.354 57.8008C195.354 56.0878 193.96 54.6992 192.241 54.6992C190.522 54.6992 189.129 56.0878 189.129 57.8008C189.129 59.5137 190.522 60.9023 192.241 60.9023Z" fill="#272727"/>
<path d="M206.791 60.9023C208.51 60.9023 209.903 59.5137 209.903 57.8008C209.903 56.0878 208.51 54.6992 206.791 54.6992C205.072 54.6992 203.678 56.0878 203.678 57.8008C203.678 59.5137 205.072 60.9023 206.791 60.9023Z" fill="#272727"/>
<path d="M221.34 60.9023C223.059 60.9023 224.453 59.5137 224.453 57.8008C224.453 56.0878 223.059 54.6992 221.34 54.6992C219.621 54.6992 218.228 56.0878 218.228 57.8008C218.228 59.5137 219.621 60.9023 221.34 60.9023Z" fill="#272727"/>
<path d="M235.888 60.9023C237.607 60.9023 239 59.5137 239 57.8008C239 56.0878 237.607 54.6992 235.888 54.6992C234.169 54.6992 232.775 56.0878 232.775 57.8008C232.775 59.5137 234.169 60.9023 235.888 60.9023Z" fill="#272727"/>
<path d="M3.11247 74.5771C4.83144 74.5771 6.22494 73.1885 6.22494 71.4756C6.22494 69.7627 4.83144 68.3741 3.11247 68.3741C1.3935 68.3741 0 69.7627 0 71.4756C0 73.1885 1.3935 74.5771 3.11247 74.5771Z" fill="#272727"/>
<path d="M17.66 74.5771C19.3789 74.5771 20.7724 73.1885 20.7724 71.4756C20.7724 69.7627 19.3789 68.3741 17.66 68.3741C15.941 68.3741 14.5475 69.7627 14.5475 71.4756C14.5475 73.1885 15.941 74.5771 17.66 74.5771Z" fill="#272727"/>
<path d="M32.2094 74.5771C33.9283 74.5771 35.3218 73.1885 35.3218 71.4756C35.3218 69.7627 33.9283 68.3741 32.2094 68.3741C30.4904 68.3741 29.0969 69.7627 29.0969 71.4756C29.0969 73.1885 30.4904 74.5771 32.2094 74.5771Z" fill="#272727"/>
<path d="M46.7587 74.5771C48.4777 74.5771 49.8712 73.1885 49.8712 71.4756C49.8712 69.7627 48.4777 68.3741 46.7587 68.3741C45.0398 68.3741 43.6463 69.7627 43.6463 71.4756C43.6463 73.1885 45.0398 74.5771 46.7587 74.5771Z" fill="#272727"/>
<path d="M61.3062 74.5771C63.0252 74.5771 64.4187 73.1885 64.4187 71.4756C64.4187 69.7627 63.0252 68.3741 61.3062 68.3741C59.5873 68.3741 58.1938 69.7627 58.1938 71.4756C58.1938 73.1885 59.5873 74.5771 61.3062 74.5771Z" fill="#272727"/>
<path d="M75.8537 74.5771C77.5727 74.5771 78.9662 73.1885 78.9662 71.4756C78.9662 69.7627 77.5727 68.3741 75.8537 68.3741C74.1348 68.3741 72.7413 69.7627 72.7413 71.4756C72.7413 73.1885 74.1348 74.5771 75.8537 74.5771Z" fill="#272727"/>
<path d="M90.4031 74.5771C92.1221 74.5771 93.5156 73.1885 93.5156 71.4756C93.5156 69.7627 92.1221 68.3741 90.4031 68.3741C88.6841 68.3741 87.2906 69.7627 87.2906 71.4756C87.2906 73.1885 88.6841 74.5771 90.4031 74.5771Z" fill="#272727"/>
<path d="M104.952 74.5771C106.671 74.5771 108.065 73.1885 108.065 71.4756C108.065 69.7627 106.671 68.3741 104.952 68.3741C103.234 68.3741 101.84 69.7627 101.84 71.4756C101.84 73.1885 103.234 74.5771 104.952 74.5771Z" fill="#272727"/>
<path d="M119.5 74.5771C121.219 74.5771 122.612 73.1885 122.612 71.4756C122.612 69.7627 121.219 68.3741 119.5 68.3741C117.781 68.3741 116.388 69.7627 116.388 71.4756C116.388 73.1885 117.781 74.5771 119.5 74.5771Z" fill="#272727"/>
<path d="M134.047 74.5771C135.766 74.5771 137.16 73.1885 137.16 71.4756C137.16 69.7627 135.766 68.3741 134.047 68.3741C132.329 68.3741 130.935 69.7627 130.935 71.4756C130.935 73.1885 132.329 74.5771 134.047 74.5771Z" fill="#272727"/>
<path d="M148.597 74.5771C150.316 74.5771 151.709 73.1885 151.709 71.4756C151.709 69.7627 150.316 68.3741 148.597 68.3741C146.878 68.3741 145.484 69.7627 145.484 71.4756C145.484 73.1885 146.878 74.5771 148.597 74.5771Z" fill="#272727"/>
<path d="M163.146 74.5771C164.865 74.5771 166.259 73.1885 166.259 71.4756C166.259 69.7627 164.865 68.3741 163.146 68.3741C161.427 68.3741 160.034 69.7627 160.034 71.4756C160.034 73.1885 161.427 74.5771 163.146 74.5771Z" fill="#272727"/>
<path d="M177.694 74.5771C179.413 74.5771 180.806 73.1885 180.806 71.4756C180.806 69.7627 179.413 68.3741 177.694 68.3741C175.975 68.3741 174.581 69.7627 174.581 71.4756C174.581 73.1885 175.975 74.5771 177.694 74.5771Z" fill="#272727"/>
<path d="M192.241 74.5771C193.96 74.5771 195.354 73.1885 195.354 71.4756C195.354 69.7627 193.96 68.3741 192.241 68.3741C190.522 68.3741 189.129 69.7627 189.129 71.4756C189.129 73.1885 190.522 74.5771 192.241 74.5771Z" fill="#272727"/>
<path d="M206.791 74.5771C208.51 74.5771 209.903 73.1885 209.903 71.4756C209.903 69.7627 208.51 68.3741 206.791 68.3741C205.072 68.3741 203.678 69.7627 203.678 71.4756C203.678 73.1885 205.072 74.5771 206.791 74.5771Z" fill="#272727"/>
<path d="M221.34 74.5771C223.059 74.5771 224.453 73.1885 224.453 71.4756C224.453 69.7627 223.059 68.3741 221.34 68.3741C219.621 68.3741 218.228 69.7627 218.228 71.4756C218.228 73.1885 219.621 74.5771 221.34 74.5771Z" fill="#272727"/>
<path d="M235.888 74.5771C237.607 74.5771 239 73.1885 239 71.4756C239 69.7627 237.607 68.3741 235.888 68.3741C234.169 68.3741 232.775 69.7627 232.775 71.4756C232.775 73.1885 234.169 74.5771 235.888 74.5771Z" fill="#272727"/>
<path d="M3.11247 88.2519C4.83144 88.2519 6.22494 86.8633 6.22494 85.1504C6.22494 83.4375 4.83144 82.0489 3.11247 82.0489C1.3935 82.0489 0 83.4375 0 85.1504C0 86.8633 1.3935 88.2519 3.11247 88.2519Z" fill="#272727"/>
<path d="M17.66 88.2519C19.3789 88.2519 20.7724 86.8633 20.7724 85.1504C20.7724 83.4375 19.3789 82.0489 17.66 82.0489C15.941 82.0489 14.5475 83.4375 14.5475 85.1504C14.5475 86.8633 15.941 88.2519 17.66 88.2519Z" fill="#272727"/>
<path d="M32.2094 88.2519C33.9283 88.2519 35.3218 86.8633 35.3218 85.1504C35.3218 83.4375 33.9283 82.0489 32.2094 82.0489C30.4904 82.0489 29.0969 83.4375 29.0969 85.1504C29.0969 86.8633 30.4904 88.2519 32.2094 88.2519Z" fill="#272727"/>
<path d="M46.7587 88.2519C48.4777 88.2519 49.8712 86.8633 49.8712 85.1504C49.8712 83.4375 48.4777 82.0489 46.7587 82.0489C45.0398 82.0489 43.6463 83.4375 43.6463 85.1504C43.6463 86.8633 45.0398 88.2519 46.7587 88.2519Z" fill="#272727"/>
<path d="M61.3062 88.2519C63.0252 88.2519 64.4187 86.8633 64.4187 85.1504C64.4187 83.4375 63.0252 82.0489 61.3062 82.0489C59.5873 82.0489 58.1938 83.4375 58.1938 85.1504C58.1938 86.8633 59.5873 88.2519 61.3062 88.2519Z" fill="#272727"/>
<path d="M75.8537 88.2519C77.5727 88.2519 78.9662 86.8633 78.9662 85.1504C78.9662 83.4375 77.5727 82.0489 75.8537 82.0489C74.1348 82.0489 72.7413 83.4375 72.7413 85.1504C72.7413 86.8633 74.1348 88.2519 75.8537 88.2519Z" fill="#272727"/>
<path d="M90.4031 88.2519C92.1221 88.2519 93.5156 86.8633 93.5156 85.1504C93.5156 83.4375 92.1221 82.0489 90.4031 82.0489C88.6841 82.0489 87.2906 83.4375 87.2906 85.1504C87.2906 86.8633 88.6841 88.2519 90.4031 88.2519Z" fill="#272727"/>
<path d="M104.952 88.2519C106.671 88.2519 108.065 86.8633 108.065 85.1504C108.065 83.4375 106.671 82.0489 104.952 82.0489C103.234 82.0489 101.84 83.4375 101.84 85.1504C101.84 86.8633 103.234 88.2519 104.952 88.2519Z" fill="#272727"/>
<path d="M119.5 88.2519C121.219 88.2519 122.612 86.8633 122.612 85.1504C122.612 83.4375 121.219 82.0489 119.5 82.0489C117.781 82.0489 116.388 83.4375 116.388 85.1504C116.388 86.8633 117.781 88.2519 119.5 88.2519Z" fill="#272727"/>
<path d="M134.047 88.2519C135.766 88.2519 137.16 86.8633 137.16 85.1504C137.16 83.4375 135.766 82.0489 134.047 82.0489C132.329 82.0489 130.935 83.4375 130.935 85.1504C130.935 86.8633 132.329 88.2519 134.047 88.2519Z" fill="#272727"/>
<path d="M148.597 88.2519C150.316 88.2519 151.709 86.8633 151.709 85.1504C151.709 83.4375 150.316 82.0489 148.597 82.0489C146.878 82.0489 145.484 83.4375 145.484 85.1504C145.484 86.8633 146.878 88.2519 148.597 88.2519Z" fill="#272727"/>
<path d="M163.146 88.2519C164.865 88.2519 166.259 86.8633 166.259 85.1504C166.259 83.4375 164.865 82.0489 163.146 82.0489C161.427 82.0489 160.034 83.4375 160.034 85.1504C160.034 86.8633 161.427 88.2519 163.146 88.2519Z" fill="#272727"/>
<path d="M177.694 88.2519C179.413 88.2519 180.806 86.8633 180.806 85.1504C180.806 83.4375 179.413 82.0489 177.694 82.0489C175.975 82.0489 174.581 83.4375 174.581 85.1504C174.581 86.8633 175.975 88.2519 177.694 88.2519Z" fill="#272727"/>
<path d="M192.241 88.2519C193.96 88.2519 195.354 86.8633 195.354 85.1504C195.354 83.4375 193.96 82.0489 192.241 82.0489C190.522 82.0489 189.129 83.4375 189.129 85.1504C189.129 86.8633 190.522 88.2519 192.241 88.2519Z" fill="#272727"/>
<path d="M206.791 88.2519C208.51 88.2519 209.903 86.8633 209.903 85.1504C209.903 83.4375 208.51 82.0489 206.791 82.0489C205.072 82.0489 203.678 83.4375 203.678 85.1504C203.678 86.8633 205.072 88.2519 206.791 88.2519Z" fill="#272727"/>
<path d="M221.34 88.2519C223.059 88.2519 224.453 86.8633 224.453 85.1504C224.453 83.4375 223.059 82.0489 221.34 82.0489C219.621 82.0489 218.228 83.4375 218.228 85.1504C218.228 86.8633 219.621 88.2519 221.34 88.2519Z" fill="#272727"/>
<path d="M235.888 88.2519C237.607 88.2519 239 86.8633 239 85.1504C239 83.4375 237.607 82.0489 235.888 82.0489C234.169 82.0489 232.775 83.4375 232.775 85.1504C232.775 86.8633 234.169 88.2519 235.888 88.2519Z" fill="#272727"/>
<path d="M3.11247 101.927C4.83144 101.927 6.22494 100.538 6.22494 98.8252C6.22494 97.1123 4.83144 95.7237 3.11247 95.7237C1.3935 95.7237 0 97.1123 0 98.8252C0 100.538 1.3935 101.927 3.11247 101.927Z" fill="#272727"/>
<path d="M17.66 101.927C19.3789 101.927 20.7724 100.538 20.7724 98.8252C20.7724 97.1123 19.3789 95.7237 17.66 95.7237C15.941 95.7237 14.5475 97.1123 14.5475 98.8252C14.5475 100.538 15.941 101.927 17.66 101.927Z" fill="#272727"/>
<path d="M32.2094 101.927C33.9283 101.927 35.3218 100.538 35.3218 98.8252C35.3218 97.1123 33.9283 95.7237 32.2094 95.7237C30.4904 95.7237 29.0969 97.1123 29.0969 98.8252C29.0969 100.538 30.4904 101.927 32.2094 101.927Z" fill="#272727"/>
<path d="M46.7587 101.927C48.4777 101.927 49.8712 100.538 49.8712 98.8252C49.8712 97.1123 48.4777 95.7237 46.7587 95.7237C45.0398 95.7237 43.6463 97.1123 43.6463 98.8252C43.6463 100.538 45.0398 101.927 46.7587 101.927Z" fill="#272727"/>
<path d="M61.3062 101.927C63.0252 101.927 64.4187 100.538 64.4187 98.8252C64.4187 97.1123 63.0252 95.7237 61.3062 95.7237C59.5873 95.7237 58.1938 97.1123 58.1938 98.8252C58.1938 100.538 59.5873 101.927 61.3062 101.927Z" fill="#272727"/>
<path d="M75.8537 101.927C77.5727 101.927 78.9662 100.538 78.9662 98.8252C78.9662 97.1123 77.5727 95.7237 75.8537 95.7237C74.1348 95.7237 72.7413 97.1123 72.7413 98.8252C72.7413 100.538 74.1348 101.927 75.8537 101.927Z" fill="#272727"/>
<path d="M90.4031 101.927C92.1221 101.927 93.5156 100.538 93.5156 98.8252C93.5156 97.1123 92.1221 95.7237 90.4031 95.7237C88.6841 95.7237 87.2906 97.1123 87.2906 98.8252C87.2906 100.538 88.6841 101.927 90.4031 101.927Z" fill="#272727"/>
<path d="M104.952 101.927C106.671 101.927 108.065 100.538 108.065 98.8252C108.065 97.1123 106.671 95.7237 104.952 95.7237C103.234 95.7237 101.84 97.1123 101.84 98.8252C101.84 100.538 103.234 101.927 104.952 101.927Z" fill="#272727"/>
<path d="M119.5 101.927C121.219 101.927 122.612 100.538 122.612 98.8252C122.612 97.1123 121.219 95.7237 119.5 95.7237C117.781 95.7237 116.388 97.1123 116.388 98.8252C116.388 100.538 117.781 101.927 119.5 101.927Z" fill="#272727"/>
<path d="M134.047 101.927C135.766 101.927 137.16 100.538 137.16 98.8252C137.16 97.1123 135.766 95.7237 134.047 95.7237C132.329 95.7237 130.935 97.1123 130.935 98.8252C130.935 100.538 132.329 101.927 134.047 101.927Z" fill="#272727"/>
<path d="M148.597 101.927C150.316 101.927 151.709 100.538 151.709 98.8252C151.709 97.1123 150.316 95.7237 148.597 95.7237C146.878 95.7237 145.484 97.1123 145.484 98.8252C145.484 100.538 146.878 101.927 148.597 101.927Z" fill="#272727"/>
<path d="M163.146 101.927C164.865 101.927 166.259 100.538 166.259 98.8252C166.259 97.1123 164.865 95.7237 163.146 95.7237C161.427 95.7237 160.034 97.1123 160.034 98.8252C160.034 100.538 161.427 101.927 163.146 101.927Z" fill="#272727"/>
<path d="M177.694 101.927C179.413 101.927 180.806 100.538 180.806 98.8252C180.806 97.1123 179.413 95.7237 177.694 95.7237C175.975 95.7237 174.581 97.1123 174.581 98.8252C174.581 100.538 175.975 101.927 177.694 101.927Z" fill="#272727"/>
<path d="M192.241 101.927C193.96 101.927 195.354 100.538 195.354 98.8252C195.354 97.1123 193.96 95.7237 192.241 95.7237C190.522 95.7237 189.129 97.1123 189.129 98.8252C189.129 100.538 190.522 101.927 192.241 101.927Z" fill="#272727"/>
<path d="M206.791 101.927C208.51 101.927 209.903 100.538 209.903 98.8252C209.903 97.1123 208.51 95.7237 206.791 95.7237C205.072 95.7237 203.678 97.1123 203.678 98.8252C203.678 100.538 205.072 101.927 206.791 101.927Z" fill="#272727"/>
<path d="M221.34 101.927C223.059 101.927 224.453 100.538 224.453 98.8252C224.453 97.1123 223.059 95.7237 221.34 95.7237C219.621 95.7237 218.228 97.1123 218.228 98.8252C218.228 100.538 219.621 101.927 221.34 101.927Z" fill="#272727"/>
<path d="M235.888 101.927C237.607 101.927 239 100.538 239 98.8252C239 97.1123 237.607 95.7237 235.888 95.7237C234.169 95.7237 232.775 97.1123 232.775 98.8252C232.775 100.538 234.169 101.927 235.888 101.927Z" fill="#272727"/>
<path d="M3.11247 115.602C4.83144 115.602 6.22494 114.213 6.22494 112.5C6.22494 110.787 4.83144 109.398 3.11247 109.398C1.3935 109.398 0 110.787 0 112.5C0 114.213 1.3935 115.602 3.11247 115.602Z" fill="#272727"/>
<path d="M17.66 115.602C19.3789 115.602 20.7724 114.213 20.7724 112.5C20.7724 110.787 19.3789 109.398 17.66 109.398C15.941 109.398 14.5475 110.787 14.5475 112.5C14.5475 114.213 15.941 115.602 17.66 115.602Z" fill="#272727"/>
<path d="M32.2094 115.602C33.9283 115.602 35.3218 114.213 35.3218 112.5C35.3218 110.787 33.9283 109.398 32.2094 109.398C30.4904 109.398 29.0969 110.787 29.0969 112.5C29.0969 114.213 30.4904 115.602 32.2094 115.602Z" fill="#272727"/>
<path d="M46.7587 115.602C48.4777 115.602 49.8712 114.213 49.8712 112.5C49.8712 110.787 48.4777 109.398 46.7587 109.398C45.0398 109.398 43.6463 110.787 43.6463 112.5C43.6463 114.213 45.0398 115.602 46.7587 115.602Z" fill="#272727"/>
<path d="M61.3062 115.602C63.0252 115.602 64.4187 114.213 64.4187 112.5C64.4187 110.787 63.0252 109.398 61.3062 109.398C59.5873 109.398 58.1938 110.787 58.1938 112.5C58.1938 114.213 59.5873 115.602 61.3062 115.602Z" fill="#272727"/>
<path d="M75.8537 115.602C77.5727 115.602 78.9662 114.213 78.9662 112.5C78.9662 110.787 77.5727 109.398 75.8537 109.398C74.1348 109.398 72.7413 110.787 72.7413 112.5C72.7413 114.213 74.1348 115.602 75.8537 115.602Z" fill="#272727"/>
<path d="M90.4031 115.602C92.1221 115.602 93.5156 114.213 93.5156 112.5C93.5156 110.787 92.1221 109.398 90.4031 109.398C88.6841 109.398 87.2906 110.787 87.2906 112.5C87.2906 114.213 88.6841 115.602 90.4031 115.602Z" fill="#272727"/>
<path d="M104.952 115.602C106.671 115.602 108.065 114.213 108.065 112.5C108.065 110.787 106.671 109.398 104.952 109.398C103.234 109.398 101.84 110.787 101.84 112.5C101.84 114.213 103.234 115.602 104.952 115.602Z" fill="#272727"/>
<path d="M119.5 115.602C121.219 115.602 122.612 114.213 122.612 112.5C122.612 110.787 121.219 109.398 119.5 109.398C117.781 109.398 116.388 110.787 116.388 112.5C116.388 114.213 117.781 115.602 119.5 115.602Z" fill="#272727"/>
<path d="M134.047 115.602C135.766 115.602 137.16 114.213 137.16 112.5C137.16 110.787 135.766 109.398 134.047 109.398C132.329 109.398 130.935 110.787 130.935 112.5C130.935 114.213 132.329 115.602 134.047 115.602Z" fill="#272727"/>
<path d="M148.597 115.602C150.316 115.602 151.709 114.213 151.709 112.5C151.709 110.787 150.316 109.398 148.597 109.398C146.878 109.398 145.484 110.787 145.484 112.5C145.484 114.213 146.878 115.602 148.597 115.602Z" fill="#272727"/>
<path d="M163.146 115.602C164.865 115.602 166.259 114.213 166.259 112.5C166.259 110.787 164.865 109.398 163.146 109.398C161.427 109.398 160.034 110.787 160.034 112.5C160.034 114.213 161.427 115.602 163.146 115.602Z" fill="#272727"/>
<path d="M177.694 115.602C179.413 115.602 180.806 114.213 180.806 112.5C180.806 110.787 179.413 109.398 177.694 109.398C175.975 109.398 174.581 110.787 174.581 112.5C174.581 114.213 175.975 115.602 177.694 115.602Z" fill="#272727"/>
<path d="M192.241 115.602C193.96 115.602 195.354 114.213 195.354 112.5C195.354 110.787 193.96 109.398 192.241 109.398C190.522 109.398 189.129 110.787 189.129 112.5C189.129 114.213 190.522 115.602 192.241 115.602Z" fill="#272727"/>
<path d="M206.791 115.602C208.51 115.602 209.903 114.213 209.903 112.5C209.903 110.787 208.51 109.398 206.791 109.398C205.072 109.398 203.678 110.787 203.678 112.5C203.678 114.213 205.072 115.602 206.791 115.602Z" fill="#272727"/>
<path d="M221.34 115.602C223.059 115.602 224.453 114.213 224.453 112.5C224.453 110.787 223.059 109.398 221.34 109.398C219.621 109.398 218.228 110.787 218.228 112.5C218.228 114.213 219.621 115.602 221.34 115.602Z" fill="#272727"/>
<path d="M235.888 115.602C237.607 115.602 239 114.213 239 112.5C239 110.787 237.607 109.398 235.888 109.398C234.169 109.398 232.775 110.787 232.775 112.5C232.775 114.213 234.169 115.602 235.888 115.602Z" fill="#272727"/>
<path d="M3.11247 129.276C4.83144 129.276 6.22494 127.888 6.22494 126.175C6.22494 124.462 4.83144 123.073 3.11247 123.073C1.3935 123.073 0 124.462 0 126.175C0 127.888 1.3935 129.276 3.11247 129.276Z" fill="#272727"/>
<path d="M17.66 129.276C19.3789 129.276 20.7724 127.888 20.7724 126.175C20.7724 124.462 19.3789 123.073 17.66 123.073C15.941 123.073 14.5475 124.462 14.5475 126.175C14.5475 127.888 15.941 129.276 17.66 129.276Z" fill="#272727"/>
<path d="M32.2094 129.276C33.9283 129.276 35.3218 127.888 35.3218 126.175C35.3218 124.462 33.9283 123.073 32.2094 123.073C30.4904 123.073 29.0969 124.462 29.0969 126.175C29.0969 127.888 30.4904 129.276 32.2094 129.276Z" fill="#272727"/>
<path d="M46.7587 129.276C48.4777 129.276 49.8712 127.888 49.8712 126.175C49.8712 124.462 48.4777 123.073 46.7587 123.073C45.0398 123.073 43.6463 124.462 43.6463 126.175C43.6463 127.888 45.0398 129.276 46.7587 129.276Z" fill="#272727"/>
<path d="M61.3062 129.276C63.0252 129.276 64.4187 127.888 64.4187 126.175C64.4187 124.462 63.0252 123.073 61.3062 123.073C59.5873 123.073 58.1938 124.462 58.1938 126.175C58.1938 127.888 59.5873 129.276 61.3062 129.276Z" fill="#272727"/>
<path d="M75.8537 129.276C77.5727 129.276 78.9662 127.888 78.9662 126.175C78.9662 124.462 77.5727 123.073 75.8537 123.073C74.1348 123.073 72.7413 124.462 72.7413 126.175C72.7413 127.888 74.1348 129.276 75.8537 129.276Z" fill="#272727"/>
<path d="M90.4031 129.276C92.1221 129.276 93.5156 127.888 93.5156 126.175C93.5156 124.462 92.1221 123.073 90.4031 123.073C88.6841 123.073 87.2906 124.462 87.2906 126.175C87.2906 127.888 88.6841 129.276 90.4031 129.276Z" fill="#272727"/>
<path d="M104.952 129.276C106.671 129.276 108.065 127.888 108.065 126.175C108.065 124.462 106.671 123.073 104.952 123.073C103.234 123.073 101.84 124.462 101.84 126.175C101.84 127.888 103.234 129.276 104.952 129.276Z" fill="#272727"/>
<path d="M119.5 129.276C121.219 129.276 122.612 127.888 122.612 126.175C122.612 124.462 121.219 123.073 119.5 123.073C117.781 123.073 116.388 124.462 116.388 126.175C116.388 127.888 117.781 129.276 119.5 129.276Z" fill="#272727"/>
<path d="M134.047 129.276C135.766 129.276 137.16 127.888 137.16 126.175C137.16 124.462 135.766 123.073 134.047 123.073C132.329 123.073 130.935 124.462 130.935 126.175C130.935 127.888 132.329 129.276 134.047 129.276Z" fill="#272727"/>
<path d="M148.597 129.276C150.316 129.276 151.709 127.888 151.709 126.175C151.709 124.462 150.316 123.073 148.597 123.073C146.878 123.073 145.484 124.462 145.484 126.175C145.484 127.888 146.878 129.276 148.597 129.276Z" fill="#272727"/>
<path d="M163.146 129.276C164.865 129.276 166.259 127.888 166.259 126.175C166.259 124.462 164.865 123.073 163.146 123.073C161.427 123.073 160.034 124.462 160.034 126.175C160.034 127.888 161.427 129.276 163.146 129.276Z" fill="#272727"/>
<path d="M177.694 129.276C179.413 129.276 180.806 127.888 180.806 126.175C180.806 124.462 179.413 123.073 177.694 123.073C175.975 123.073 174.581 124.462 174.581 126.175C174.581 127.888 175.975 129.276 177.694 129.276Z" fill="#272727"/>
<path d="M192.241 129.276C193.96 129.276 195.354 127.888 195.354 126.175C195.354 124.462 193.96 123.073 192.241 123.073C190.522 123.073 189.129 124.462 189.129 126.175C189.129 127.888 190.522 129.276 192.241 129.276Z" fill="#272727"/>
<path d="M206.791 129.276C208.51 129.276 209.903 127.888 209.903 126.175C209.903 124.462 208.51 123.073 206.791 123.073C205.072 123.073 203.678 124.462 203.678 126.175C203.678 127.888 205.072 129.276 206.791 129.276Z" fill="#272727"/>
<path d="M221.34 129.276C223.059 129.276 224.453 127.888 224.453 126.175C224.453 124.462 223.059 123.073 221.34 123.073C219.621 123.073 218.228 124.462 218.228 126.175C218.228 127.888 219.621 129.276 221.34 129.276Z" fill="#272727"/>
<path d="M235.888 129.276C237.607 129.276 239 127.888 239 126.175C239 124.462 237.607 123.073 235.888 123.073C234.169 123.073 232.775 124.462 232.775 126.175C232.775 127.888 234.169 129.276 235.888 129.276Z" fill="#272727"/>
<path d="M3.11247 142.951C4.83144 142.951 6.22494 141.563 6.22494 139.85C6.22494 138.137 4.83144 136.748 3.11247 136.748C1.3935 136.748 0 138.137 0 139.85C0 141.563 1.3935 142.951 3.11247 142.951Z" fill="#272727"/>
<path d="M17.66 142.951C19.3789 142.951 20.7724 141.563 20.7724 139.85C20.7724 138.137 19.3789 136.748 17.66 136.748C15.941 136.748 14.5475 138.137 14.5475 139.85C14.5475 141.563 15.941 142.951 17.66 142.951Z" fill="#272727"/>
<path d="M32.2094 142.951C33.9283 142.951 35.3218 141.563 35.3218 139.85C35.3218 138.137 33.9283 136.748 32.2094 136.748C30.4904 136.748 29.0969 138.137 29.0969 139.85C29.0969 141.563 30.4904 142.951 32.2094 142.951Z" fill="#272727"/>
<path d="M46.7587 142.951C48.4777 142.951 49.8712 141.563 49.8712 139.85C49.8712 138.137 48.4777 136.748 46.7587 136.748C45.0398 136.748 43.6463 138.137 43.6463 139.85C43.6463 141.563 45.0398 142.951 46.7587 142.951Z" fill="#272727"/>
<path d="M61.3062 142.951C63.0252 142.951 64.4187 141.563 64.4187 139.85C64.4187 138.137 63.0252 136.748 61.3062 136.748C59.5873 136.748 58.1938 138.137 58.1938 139.85C58.1938 141.563 59.5873 142.951 61.3062 142.951Z" fill="#272727"/>
<path d="M75.8537 142.951C77.5727 142.951 78.9662 141.563 78.9662 139.85C78.9662 138.137 77.5727 136.748 75.8537 136.748C74.1348 136.748 72.7413 138.137 72.7413 139.85C72.7413 141.563 74.1348 142.951 75.8537 142.951Z" fill="#272727"/>
<path d="M90.4031 142.951C92.1221 142.951 93.5156 141.563 93.5156 139.85C93.5156 138.137 92.1221 136.748 90.4031 136.748C88.6841 136.748 87.2906 138.137 87.2906 139.85C87.2906 141.563 88.6841 142.951 90.4031 142.951Z" fill="#272727"/>
<path d="M104.952 142.951C106.671 142.951 108.065 141.563 108.065 139.85C108.065 138.137 106.671 136.748 104.952 136.748C103.234 136.748 101.84 138.137 101.84 139.85C101.84 141.563 103.234 142.951 104.952 142.951Z" fill="#272727"/>
<path d="M119.5 142.951C121.219 142.951 122.612 141.563 122.612 139.85C122.612 138.137 121.219 136.748 119.5 136.748C117.781 136.748 116.388 138.137 116.388 139.85C116.388 141.563 117.781 142.951 119.5 142.951Z" fill="#272727"/>
<path d="M134.047 142.951C135.766 142.951 137.16 141.563 137.16 139.85C137.16 138.137 135.766 136.748 134.047 136.748C132.329 136.748 130.935 138.137 130.935 139.85C130.935 141.563 132.329 142.951 134.047 142.951Z" fill="#272727"/>
<path d="M148.597 142.951C150.316 142.951 151.709 141.563 151.709 139.85C151.709 138.137 150.316 136.748 148.597 136.748C146.878 136.748 145.484 138.137 145.484 139.85C145.484 141.563 146.878 142.951 148.597 142.951Z" fill="#272727"/>
<path d="M163.146 142.951C164.865 142.951 166.259 141.563 166.259 139.85C166.259 138.137 164.865 136.748 163.146 136.748C161.427 136.748 160.034 138.137 160.034 139.85C160.034 141.563 161.427 142.951 163.146 142.951Z" fill="#272727"/>
<path d="M177.694 142.951C179.413 142.951 180.806 141.563 180.806 139.85C180.806 138.137 179.413 136.748 177.694 136.748C175.975 136.748 174.581 138.137 174.581 139.85C174.581 141.563 175.975 142.951 177.694 142.951Z" fill="#272727"/>
<path d="M192.241 142.951C193.96 142.951 195.354 141.563 195.354 139.85C195.354 138.137 193.96 136.748 192.241 136.748C190.522 136.748 189.129 138.137 189.129 139.85C189.129 141.563 190.522 142.951 192.241 142.951Z" fill="#272727"/>
<path d="M206.791 142.951C208.51 142.951 209.903 141.563 209.903 139.85C209.903 138.137 208.51 136.748 206.791 136.748C205.072 136.748 203.678 138.137 203.678 139.85C203.678 141.563 205.072 142.951 206.791 142.951Z" fill="#272727"/>
<path d="M221.34 142.951C223.059 142.951 224.453 141.563 224.453 139.85C224.453 138.137 223.059 136.748 221.34 136.748C219.621 136.748 218.228 138.137 218.228 139.85C218.228 141.563 219.621 142.951 221.34 142.951Z" fill="#272727"/>
<path d="M235.888 142.951C237.607 142.951 239 141.563 239 139.85C239 138.137 237.607 136.748 235.888 136.748C234.169 136.748 232.775 138.137 232.775 139.85C232.775 141.563 234.169 142.951 235.888 142.951Z" fill="#272727"/>
<path d="M3.11247 156.626C4.83144 156.626 6.22494 155.237 6.22494 153.524C6.22494 151.812 4.83144 150.423 3.11247 150.423C1.3935 150.423 0 151.812 0 153.524C0 155.237 1.3935 156.626 3.11247 156.626Z" fill="#272727"/>
<path d="M17.66 156.626C19.3789 156.626 20.7724 155.237 20.7724 153.524C20.7724 151.812 19.3789 150.423 17.66 150.423C15.941 150.423 14.5475 151.812 14.5475 153.524C14.5475 155.237 15.941 156.626 17.66 156.626Z" fill="#272727"/>
<path d="M32.2094 156.626C33.9283 156.626 35.3218 155.237 35.3218 153.524C35.3218 151.812 33.9283 150.423 32.2094 150.423C30.4904 150.423 29.0969 151.812 29.0969 153.524C29.0969 155.237 30.4904 156.626 32.2094 156.626Z" fill="#272727"/>
<path d="M46.7587 156.626C48.4777 156.626 49.8712 155.237 49.8712 153.524C49.8712 151.812 48.4777 150.423 46.7587 150.423C45.0398 150.423 43.6463 151.812 43.6463 153.524C43.6463 155.237 45.0398 156.626 46.7587 156.626Z" fill="#272727"/>
<path d="M61.3062 156.626C63.0252 156.626 64.4187 155.237 64.4187 153.524C64.4187 151.812 63.0252 150.423 61.3062 150.423C59.5873 150.423 58.1938 151.812 58.1938 153.524C58.1938 155.237 59.5873 156.626 61.3062 156.626Z" fill="#272727"/>
<path d="M75.8537 156.626C77.5727 156.626 78.9662 155.237 78.9662 153.524C78.9662 151.812 77.5727 150.423 75.8537 150.423C74.1348 150.423 72.7413 151.812 72.7413 153.524C72.7413 155.237 74.1348 156.626 75.8537 156.626Z" fill="#272727"/>
<path d="M90.4031 156.626C92.1221 156.626 93.5156 155.237 93.5156 153.524C93.5156 151.812 92.1221 150.423 90.4031 150.423C88.6841 150.423 87.2906 151.812 87.2906 153.524C87.2906 155.237 88.6841 156.626 90.4031 156.626Z" fill="#272727"/>
<path d="M104.952 156.626C106.671 156.626 108.065 155.237 108.065 153.524C108.065 151.812 106.671 150.423 104.952 150.423C103.234 150.423 101.84 151.812 101.84 153.524C101.84 155.237 103.234 156.626 104.952 156.626Z" fill="#272727"/>
<path d="M119.5 156.626C121.219 156.626 122.612 155.237 122.612 153.524C122.612 151.812 121.219 150.423 119.5 150.423C117.781 150.423 116.388 151.812 116.388 153.524C116.388 155.237 117.781 156.626 119.5 156.626Z" fill="#272727"/>
<path d="M134.047 156.626C135.766 156.626 137.16 155.237 137.16 153.524C137.16 151.812 135.766 150.423 134.047 150.423C132.329 150.423 130.935 151.812 130.935 153.524C130.935 155.237 132.329 156.626 134.047 156.626Z" fill="#272727"/>
<path d="M148.597 156.626C150.316 156.626 151.709 155.237 151.709 153.524C151.709 151.812 150.316 150.423 148.597 150.423C146.878 150.423 145.484 151.812 145.484 153.524C145.484 155.237 146.878 156.626 148.597 156.626Z" fill="#272727"/>
<path d="M163.146 156.626C164.865 156.626 166.259 155.237 166.259 153.524C166.259 151.812 164.865 150.423 163.146 150.423C161.427 150.423 160.034 151.812 160.034 153.524C160.034 155.237 161.427 156.626 163.146 156.626Z" fill="#272727"/>
<path d="M177.694 156.626C179.413 156.626 180.806 155.237 180.806 153.524C180.806 151.812 179.413 150.423 177.694 150.423C175.975 150.423 174.581 151.812 174.581 153.524C174.581 155.237 175.975 156.626 177.694 156.626Z" fill="#272727"/>
<path d="M192.241 156.626C193.96 156.626 195.354 155.237 195.354 153.524C195.354 151.812 193.96 150.423 192.241 150.423C190.522 150.423 189.129 151.812 189.129 153.524C189.129 155.237 190.522 156.626 192.241 156.626Z" fill="#272727"/>
<path d="M206.791 156.626C208.51 156.626 209.903 155.237 209.903 153.524C209.903 151.812 208.51 150.423 206.791 150.423C205.072 150.423 203.678 151.812 203.678 153.524C203.678 155.237 205.072 156.626 206.791 156.626Z" fill="#272727"/>
<path d="M221.34 156.626C223.059 156.626 224.453 155.237 224.453 153.524C224.453 151.812 223.059 150.423 221.34 150.423C219.621 150.423 218.228 151.812 218.228 153.524C218.228 155.237 219.621 156.626 221.34 156.626Z" fill="#272727"/>
<path d="M235.888 156.626C237.607 156.626 239 155.237 239 153.524C239 151.812 237.607 150.423 235.888 150.423C234.169 150.423 232.775 151.812 232.775 153.524C232.775 155.237 234.169 156.626 235.888 156.626Z" fill="#272727"/>
<path d="M3.11247 170.301C4.83144 170.301 6.22494 168.912 6.22494 167.199C6.22494 165.486 4.83144 164.098 3.11247 164.098C1.3935 164.098 0 165.486 0 167.199C0 168.912 1.3935 170.301 3.11247 170.301Z" fill="#272727"/>
<path d="M17.66 170.301C19.3789 170.301 20.7724 168.912 20.7724 167.199C20.7724 165.486 19.3789 164.098 17.66 164.098C15.941 164.098 14.5475 165.486 14.5475 167.199C14.5475 168.912 15.941 170.301 17.66 170.301Z" fill="#272727"/>
<path d="M32.2094 170.301C33.9283 170.301 35.3218 168.912 35.3218 167.199C35.3218 165.486 33.9283 164.098 32.2094 164.098C30.4904 164.098 29.0969 165.486 29.0969 167.199C29.0969 168.912 30.4904 170.301 32.2094 170.301Z" fill="#272727"/>
<path d="M46.7587 170.301C48.4777 170.301 49.8712 168.912 49.8712 167.199C49.8712 165.486 48.4777 164.098 46.7587 164.098C45.0398 164.098 43.6463 165.486 43.6463 167.199C43.6463 168.912 45.0398 170.301 46.7587 170.301Z" fill="#272727"/>
<path d="M61.3062 170.301C63.0252 170.301 64.4187 168.912 64.4187 167.199C64.4187 165.486 63.0252 164.098 61.3062 164.098C59.5873 164.098 58.1938 165.486 58.1938 167.199C58.1938 168.912 59.5873 170.301 61.3062 170.301Z" fill="#272727"/>
<path d="M75.8537 170.301C77.5727 170.301 78.9662 168.912 78.9662 167.199C78.9662 165.486 77.5727 164.098 75.8537 164.098C74.1348 164.098 72.7413 165.486 72.7413 167.199C72.7413 168.912 74.1348 170.301 75.8537 170.301Z" fill="#272727"/>
<path d="M90.4031 170.301C92.1221 170.301 93.5156 168.912 93.5156 167.199C93.5156 165.486 92.1221 164.098 90.4031 164.098C88.6841 164.098 87.2906 165.486 87.2906 167.199C87.2906 168.912 88.6841 170.301 90.4031 170.301Z" fill="#272727"/>
<path d="M104.952 170.301C106.671 170.301 108.065 168.912 108.065 167.199C108.065 165.486 106.671 164.098 104.952 164.098C103.234 164.098 101.84 165.486 101.84 167.199C101.84 168.912 103.234 170.301 104.952 170.301Z" fill="#272727"/>
<path d="M119.5 170.301C121.219 170.301 122.612 168.912 122.612 167.199C122.612 165.486 121.219 164.098 119.5 164.098C117.781 164.098 116.388 165.486 116.388 167.199C116.388 168.912 117.781 170.301 119.5 170.301Z" fill="#272727"/>
<path d="M134.047 170.301C135.766 170.301 137.16 168.912 137.16 167.199C137.16 165.486 135.766 164.098 134.047 164.098C132.329 164.098 130.935 165.486 130.935 167.199C130.935 168.912 132.329 170.301 134.047 170.301Z" fill="#272727"/>
<path d="M148.597 170.301C150.316 170.301 151.709 168.912 151.709 167.199C151.709 165.486 150.316 164.098 148.597 164.098C146.878 164.098 145.484 165.486 145.484 167.199C145.484 168.912 146.878 170.301 148.597 170.301Z" fill="#272727"/>
<path d="M163.146 170.301C164.865 170.301 166.259 168.912 166.259 167.199C166.259 165.486 164.865 164.098 163.146 164.098C161.427 164.098 160.034 165.486 160.034 167.199C160.034 168.912 161.427 170.301 163.146 170.301Z" fill="#272727"/>
<path d="M177.694 170.301C179.413 170.301 180.806 168.912 180.806 167.199C180.806 165.486 179.413 164.098 177.694 164.098C175.975 164.098 174.581 165.486 174.581 167.199C174.581 168.912 175.975 170.301 177.694 170.301Z" fill="#272727"/>
<path d="M192.241 170.301C193.96 170.301 195.354 168.912 195.354 167.199C195.354 165.486 193.96 164.098 192.241 164.098C190.522 164.098 189.129 165.486 189.129 167.199C189.129 168.912 190.522 170.301 192.241 170.301Z" fill="#272727"/>
<path d="M206.791 170.301C208.51 170.301 209.903 168.912 209.903 167.199C209.903 165.486 208.51 164.098 206.791 164.098C205.072 164.098 203.678 165.486 203.678 167.199C203.678 168.912 205.072 170.301 206.791 170.301Z" fill="#272727"/>
<path d="M221.34 170.301C223.059 170.301 224.453 168.912 224.453 167.199C224.453 165.486 223.059 164.098 221.34 164.098C219.621 164.098 218.228 165.486 218.228 167.199C218.228 168.912 219.621 170.301 221.34 170.301Z" fill="#272727"/>
<path d="M235.888 170.301C237.607 170.301 239 168.912 239 167.199C239 165.486 237.607 164.098 235.888 164.098C234.169 164.098 232.775 165.486 232.775 167.199C232.775 168.912 234.169 170.301 235.888 170.301Z" fill="#272727"/>
<path d="M3.11247 183.976C4.83144 183.976 6.22494 182.587 6.22494 180.874C6.22494 179.161 4.83144 177.773 3.11247 177.773C1.3935 177.773 0 179.161 0 180.874C0 182.587 1.3935 183.976 3.11247 183.976Z" fill="#272727"/>
<path d="M17.66 183.976C19.3789 183.976 20.7724 182.587 20.7724 180.874C20.7724 179.161 19.3789 177.773 17.66 177.773C15.941 177.773 14.5475 179.161 14.5475 180.874C14.5475 182.587 15.941 183.976 17.66 183.976Z" fill="#272727"/>
<path d="M32.2094 183.976C33.9283 183.976 35.3218 182.587 35.3218 180.874C35.3218 179.161 33.9283 177.773 32.2094 177.773C30.4904 177.773 29.0969 179.161 29.0969 180.874C29.0969 182.587 30.4904 183.976 32.2094 183.976Z" fill="#272727"/>
<path d="M46.7587 183.976C48.4777 183.976 49.8712 182.587 49.8712 180.874C49.8712 179.161 48.4777 177.773 46.7587 177.773C45.0398 177.773 43.6463 179.161 43.6463 180.874C43.6463 182.587 45.0398 183.976 46.7587 183.976Z" fill="#272727"/>
<path d="M61.3062 183.976C63.0252 183.976 64.4187 182.587 64.4187 180.874C64.4187 179.161 63.0252 177.773 61.3062 177.773C59.5873 177.773 58.1938 179.161 58.1938 180.874C58.1938 182.587 59.5873 183.976 61.3062 183.976Z" fill="#272727"/>
<path d="M75.8537 183.976C77.5727 183.976 78.9662 182.587 78.9662 180.874C78.9662 179.161 77.5727 177.773 75.8537 177.773C74.1348 177.773 72.7413 179.161 72.7413 180.874C72.7413 182.587 74.1348 183.976 75.8537 183.976Z" fill="#272727"/>
<path d="M90.4031 183.976C92.1221 183.976 93.5156 182.587 93.5156 180.874C93.5156 179.161 92.1221 177.773 90.4031 177.773C88.6841 177.773 87.2906 179.161 87.2906 180.874C87.2906 182.587 88.6841 183.976 90.4031 183.976Z" fill="#272727"/>
<path d="M104.952 183.976C106.671 183.976 108.065 182.587 108.065 180.874C108.065 179.161 106.671 177.773 104.952 177.773C103.234 177.773 101.84 179.161 101.84 180.874C101.84 182.587 103.234 183.976 104.952 183.976Z" fill="#272727"/>
<path d="M119.5 183.976C121.219 183.976 122.612 182.587 122.612 180.874C122.612 179.161 121.219 177.773 119.5 177.773C117.781 177.773 116.388 179.161 116.388 180.874C116.388 182.587 117.781 183.976 119.5 183.976Z" fill="#272727"/>
<path d="M134.047 183.976C135.766 183.976 137.16 182.587 137.16 180.874C137.16 179.161 135.766 177.773 134.047 177.773C132.329 177.773 130.935 179.161 130.935 180.874C130.935 182.587 132.329 183.976 134.047 183.976Z" fill="#272727"/>
<path d="M148.597 183.976C150.316 183.976 151.709 182.587 151.709 180.874C151.709 179.161 150.316 177.773 148.597 177.773C146.878 177.773 145.484 179.161 145.484 180.874C145.484 182.587 146.878 183.976 148.597 183.976Z" fill="#272727"/>
<path d="M163.146 183.976C164.865 183.976 166.259 182.587 166.259 180.874C166.259 179.161 164.865 177.773 163.146 177.773C161.427 177.773 160.034 179.161 160.034 180.874C160.034 182.587 161.427 183.976 163.146 183.976Z" fill="#272727"/>
<path d="M177.694 183.976C179.413 183.976 180.806 182.587 180.806 180.874C180.806 179.161 179.413 177.773 177.694 177.773C175.975 177.773 174.581 179.161 174.581 180.874C174.581 182.587 175.975 183.976 177.694 183.976Z" fill="#272727"/>
<path d="M192.241 183.976C193.96 183.976 195.354 182.587 195.354 180.874C195.354 179.161 193.96 177.773 192.241 177.773C190.522 177.773 189.129 179.161 189.129 180.874C189.129 182.587 190.522 183.976 192.241 183.976Z" fill="#272727"/>
<path d="M206.791 183.976C208.51 183.976 209.903 182.587 209.903 180.874C209.903 179.161 208.51 177.773 206.791 177.773C205.072 177.773 203.678 179.161 203.678 180.874C203.678 182.587 205.072 183.976 206.791 183.976Z" fill="#272727"/>
<path d="M221.34 183.976C223.059 183.976 224.453 182.587 224.453 180.874C224.453 179.161 223.059 177.773 221.34 177.773C219.621 177.773 218.228 179.161 218.228 180.874C218.228 182.587 219.621 183.976 221.34 183.976Z" fill="#272727"/>
<path d="M235.888 183.976C237.607 183.976 239 182.587 239 180.874C239 179.161 237.607 177.773 235.888 177.773C234.169 177.773 232.775 179.161 232.775 180.874C232.775 182.587 234.169 183.976 235.888 183.976Z" fill="#272727"/>
<path d="M3.11247 197.65C4.83144 197.65 6.22494 196.262 6.22494 194.549C6.22494 192.836 4.83144 191.447 3.11247 191.447C1.3935 191.447 0 192.836 0 194.549C0 196.262 1.3935 197.65 3.11247 197.65Z" fill="#272727"/>
<path d="M17.66 197.65C19.3789 197.65 20.7724 196.262 20.7724 194.549C20.7724 192.836 19.3789 191.447 17.66 191.447C15.941 191.447 14.5475 192.836 14.5475 194.549C14.5475 196.262 15.941 197.65 17.66 197.65Z" fill="#272727"/>
<path d="M32.2094 197.65C33.9283 197.65 35.3218 196.262 35.3218 194.549C35.3218 192.836 33.9283 191.447 32.2094 191.447C30.4904 191.447 29.0969 192.836 29.0969 194.549C29.0969 196.262 30.4904 197.65 32.2094 197.65Z" fill="#272727"/>
<path d="M46.7587 197.65C48.4777 197.65 49.8712 196.262 49.8712 194.549C49.8712 192.836 48.4777 191.447 46.7587 191.447C45.0398 191.447 43.6463 192.836 43.6463 194.549C43.6463 196.262 45.0398 197.65 46.7587 197.65Z" fill="#272727"/>
<path d="M61.3062 197.65C63.0252 197.65 64.4187 196.262 64.4187 194.549C64.4187 192.836 63.0252 191.447 61.3062 191.447C59.5873 191.447 58.1938 192.836 58.1938 194.549C58.1938 196.262 59.5873 197.65 61.3062 197.65Z" fill="#272727"/>
<path d="M75.8537 197.65C77.5727 197.65 78.9662 196.262 78.9662 194.549C78.9662 192.836 77.5727 191.447 75.8537 191.447C74.1348 191.447 72.7413 192.836 72.7413 194.549C72.7413 196.262 74.1348 197.65 75.8537 197.65Z" fill="#272727"/>
<path d="M90.4031 197.65C92.1221 197.65 93.5156 196.262 93.5156 194.549C93.5156 192.836 92.1221 191.447 90.4031 191.447C88.6841 191.447 87.2906 192.836 87.2906 194.549C87.2906 196.262 88.6841 197.65 90.4031 197.65Z" fill="#272727"/>
<path d="M104.952 197.65C106.671 197.65 108.065 196.262 108.065 194.549C108.065 192.836 106.671 191.447 104.952 191.447C103.234 191.447 101.84 192.836 101.84 194.549C101.84 196.262 103.234 197.65 104.952 197.65Z" fill="#272727"/>
<path d="M119.5 197.65C121.219 197.65 122.612 196.262 122.612 194.549C122.612 192.836 121.219 191.447 119.5 191.447C117.781 191.447 116.388 192.836 116.388 194.549C116.388 196.262 117.781 197.65 119.5 197.65Z" fill="#272727"/>
<path d="M134.047 197.65C135.766 197.65 137.16 196.262 137.16 194.549C137.16 192.836 135.766 191.447 134.047 191.447C132.329 191.447 130.935 192.836 130.935 194.549C130.935 196.262 132.329 197.65 134.047 197.65Z" fill="#272727"/>
<path d="M148.597 197.65C150.316 197.65 151.709 196.262 151.709 194.549C151.709 192.836 150.316 191.447 148.597 191.447C146.878 191.447 145.484 192.836 145.484 194.549C145.484 196.262 146.878 197.65 148.597 197.65Z" fill="#272727"/>
<path d="M163.146 197.65C164.865 197.65 166.259 196.262 166.259 194.549C166.259 192.836 164.865 191.447 163.146 191.447C161.427 191.447 160.034 192.836 160.034 194.549C160.034 196.262 161.427 197.65 163.146 197.65Z" fill="#272727"/>
<path d="M177.694 197.65C179.413 197.65 180.806 196.262 180.806 194.549C180.806 192.836 179.413 191.447 177.694 191.447C175.975 191.447 174.581 192.836 174.581 194.549C174.581 196.262 175.975 197.65 177.694 197.65Z" fill="#272727"/>
<path d="M192.241 197.65C193.96 197.65 195.354 196.262 195.354 194.549C195.354 192.836 193.96 191.447 192.241 191.447C190.522 191.447 189.129 192.836 189.129 194.549C189.129 196.262 190.522 197.65 192.241 197.65Z" fill="#272727"/>
<path d="M206.791 197.65C208.51 197.65 209.903 196.262 209.903 194.549C209.903 192.836 208.51 191.447 206.791 191.447C205.072 191.447 203.678 192.836 203.678 194.549C203.678 196.262 205.072 197.65 206.791 197.65Z" fill="#272727"/>
<path d="M221.34 197.65C223.059 197.65 224.453 196.262 224.453 194.549C224.453 192.836 223.059 191.447 221.34 191.447C219.621 191.447 218.228 192.836 218.228 194.549C218.228 196.262 219.621 197.65 221.34 197.65Z" fill="#272727"/>
<path d="M235.888 197.65C237.607 197.65 239 196.262 239 194.549C239 192.836 237.607 191.447 235.888 191.447C234.169 191.447 232.775 192.836 232.775 194.549C232.775 196.262 234.169 197.65 235.888 197.65Z" fill="#272727"/>
<path d="M3.11247 211.325C4.83144 211.325 6.22494 209.937 6.22494 208.224C6.22494 206.511 4.83144 205.122 3.11247 205.122C1.3935 205.122 0 206.511 0 208.224C0 209.937 1.3935 211.325 3.11247 211.325Z" fill="#272727"/>
<path d="M17.66 211.325C19.3789 211.325 20.7724 209.937 20.7724 208.224C20.7724 206.511 19.3789 205.122 17.66 205.122C15.941 205.122 14.5475 206.511 14.5475 208.224C14.5475 209.937 15.941 211.325 17.66 211.325Z" fill="#272727"/>
<path d="M32.2094 211.325C33.9283 211.325 35.3218 209.937 35.3218 208.224C35.3218 206.511 33.9283 205.122 32.2094 205.122C30.4904 205.122 29.0969 206.511 29.0969 208.224C29.0969 209.937 30.4904 211.325 32.2094 211.325Z" fill="#272727"/>
<path d="M46.7587 211.325C48.4777 211.325 49.8712 209.937 49.8712 208.224C49.8712 206.511 48.4777 205.122 46.7587 205.122C45.0398 205.122 43.6463 206.511 43.6463 208.224C43.6463 209.937 45.0398 211.325 46.7587 211.325Z" fill="#272727"/>
<path d="M61.3062 211.325C63.0252 211.325 64.4187 209.937 64.4187 208.224C64.4187 206.511 63.0252 205.122 61.3062 205.122C59.5873 205.122 58.1938 206.511 58.1938 208.224C58.1938 209.937 59.5873 211.325 61.3062 211.325Z" fill="#272727"/>
<path d="M75.8537 211.325C77.5727 211.325 78.9662 209.937 78.9662 208.224C78.9662 206.511 77.5727 205.122 75.8537 205.122C74.1348 205.122 72.7413 206.511 72.7413 208.224C72.7413 209.937 74.1348 211.325 75.8537 211.325Z" fill="#272727"/>
<path d="M90.4031 211.325C92.1221 211.325 93.5156 209.937 93.5156 208.224C93.5156 206.511 92.1221 205.122 90.4031 205.122C88.6841 205.122 87.2906 206.511 87.2906 208.224C87.2906 209.937 88.6841 211.325 90.4031 211.325Z" fill="#272727"/>
<path d="M104.952 211.325C106.671 211.325 108.065 209.937 108.065 208.224C108.065 206.511 106.671 205.122 104.952 205.122C103.234 205.122 101.84 206.511 101.84 208.224C101.84 209.937 103.234 211.325 104.952 211.325Z" fill="#272727"/>
<path d="M119.5 211.325C121.219 211.325 122.612 209.937 122.612 208.224C122.612 206.511 121.219 205.122 119.5 205.122C117.781 205.122 116.388 206.511 116.388 208.224C116.388 209.937 117.781 211.325 119.5 211.325Z" fill="#272727"/>
<path d="M134.047 211.325C135.766 211.325 137.16 209.937 137.16 208.224C137.16 206.511 135.766 205.122 134.047 205.122C132.329 205.122 130.935 206.511 130.935 208.224C130.935 209.937 132.329 211.325 134.047 211.325Z" fill="#272727"/>
<path d="M148.597 211.325C150.316 211.325 151.709 209.937 151.709 208.224C151.709 206.511 150.316 205.122 148.597 205.122C146.878 205.122 145.484 206.511 145.484 208.224C145.484 209.937 146.878 211.325 148.597 211.325Z" fill="#272727"/>
<path d="M163.146 211.325C164.865 211.325 166.259 209.937 166.259 208.224C166.259 206.511 164.865 205.122 163.146 205.122C161.427 205.122 160.034 206.511 160.034 208.224C160.034 209.937 161.427 211.325 163.146 211.325Z" fill="#272727"/>
<path d="M177.694 211.325C179.413 211.325 180.806 209.937 180.806 208.224C180.806 206.511 179.413 205.122 177.694 205.122C175.975 205.122 174.581 206.511 174.581 208.224C174.581 209.937 175.975 211.325 177.694 211.325Z" fill="#272727"/>
<path d="M192.241 211.325C193.96 211.325 195.354 209.937 195.354 208.224C195.354 206.511 193.96 205.122 192.241 205.122C190.522 205.122 189.129 206.511 189.129 208.224C189.129 209.937 190.522 211.325 192.241 211.325Z" fill="#272727"/>
<path d="M206.791 211.325C208.51 211.325 209.903 209.937 209.903 208.224C209.903 206.511 208.51 205.122 206.791 205.122C205.072 205.122 203.678 206.511 203.678 208.224C203.678 209.937 205.072 211.325 206.791 211.325Z" fill="#272727"/>
<path d="M221.34 211.325C223.059 211.325 224.453 209.937 224.453 208.224C224.453 206.511 223.059 205.122 221.34 205.122C219.621 205.122 218.228 206.511 218.228 208.224C218.228 209.937 219.621 211.325 221.34 211.325Z" fill="#272727"/>
<path d="M235.888 211.325C237.607 211.325 239 209.937 239 208.224C239 206.511 237.607 205.122 235.888 205.122C234.169 205.122 232.775 206.511 232.775 208.224C232.775 209.937 234.169 211.325 235.888 211.325Z" fill="#272727"/>
<path d="M3.11247 225C4.83144 225 6.22494 223.611 6.22494 221.899C6.22494 220.186 4.83144 218.797 3.11247 218.797C1.3935 218.797 0 220.186 0 221.899C0 223.611 1.3935 225 3.11247 225Z" fill="#272727"/>
<path d="M17.66 225C19.3789 225 20.7724 223.611 20.7724 221.899C20.7724 220.186 19.3789 218.797 17.66 218.797C15.941 218.797 14.5475 220.186 14.5475 221.899C14.5475 223.611 15.941 225 17.66 225Z" fill="#272727"/>
<path d="M32.2094 225C33.9283 225 35.3218 223.611 35.3218 221.899C35.3218 220.186 33.9283 218.797 32.2094 218.797C30.4904 218.797 29.0969 220.186 29.0969 221.899C29.0969 223.611 30.4904 225 32.2094 225Z" fill="#272727"/>
<path d="M46.7587 225C48.4777 225 49.8712 223.611 49.8712 221.899C49.8712 220.186 48.4777 218.797 46.7587 218.797C45.0398 218.797 43.6463 220.186 43.6463 221.899C43.6463 223.611 45.0398 225 46.7587 225Z" fill="#272727"/>
<path d="M61.3062 225C63.0252 225 64.4187 223.611 64.4187 221.899C64.4187 220.186 63.0252 218.797 61.3062 218.797C59.5873 218.797 58.1938 220.186 58.1938 221.899C58.1938 223.611 59.5873 225 61.3062 225Z" fill="#272727"/>
<path d="M75.8537 225C77.5727 225 78.9662 223.611 78.9662 221.899C78.9662 220.186 77.5727 218.797 75.8537 218.797C74.1348 218.797 72.7413 220.186 72.7413 221.899C72.7413 223.611 74.1348 225 75.8537 225Z" fill="#272727"/>
<path d="M90.4031 225C92.1221 225 93.5156 223.611 93.5156 221.899C93.5156 220.186 92.1221 218.797 90.4031 218.797C88.6841 218.797 87.2906 220.186 87.2906 221.899C87.2906 223.611 88.6841 225 90.4031 225Z" fill="#272727"/>
<path d="M104.952 225C106.671 225 108.065 223.611 108.065 221.899C108.065 220.186 106.671 218.797 104.952 218.797C103.234 218.797 101.84 220.186 101.84 221.899C101.84 223.611 103.234 225 104.952 225Z" fill="#272727"/>
<path d="M119.5 225C121.219 225 122.612 223.611 122.612 221.899C122.612 220.186 121.219 218.797 119.5 218.797C117.781 218.797 116.388 220.186 116.388 221.899C116.388 223.611 117.781 225 119.5 225Z" fill="#272727"/>
<path d="M134.047 225C135.766 225 137.16 223.611 137.16 221.899C137.16 220.186 135.766 218.797 134.047 218.797C132.329 218.797 130.935 220.186 130.935 221.899C130.935 223.611 132.329 225 134.047 225Z" fill="#272727"/>
<path d="M148.597 225C150.316 225 151.709 223.611 151.709 221.899C151.709 220.186 150.316 218.797 148.597 218.797C146.878 218.797 145.484 220.186 145.484 221.899C145.484 223.611 146.878 225 148.597 225Z" fill="#272727"/>
<path d="M163.146 225C164.865 225 166.259 223.611 166.259 221.899C166.259 220.186 164.865 218.797 163.146 218.797C161.427 218.797 160.034 220.186 160.034 221.899C160.034 223.611 161.427 225 163.146 225Z" fill="#272727"/>
<path d="M177.694 225C179.413 225 180.806 223.611 180.806 221.899C180.806 220.186 179.413 218.797 177.694 218.797C175.975 218.797 174.581 220.186 174.581 221.899C174.581 223.611 175.975 225 177.694 225Z" fill="#272727"/>
<path d="M192.241 225C193.96 225 195.354 223.611 195.354 221.899C195.354 220.186 193.96 218.797 192.241 218.797C190.522 218.797 189.129 220.186 189.129 221.899C189.129 223.611 190.522 225 192.241 225Z" fill="#272727"/>
<path d="M206.791 225C208.51 225 209.903 223.611 209.903 221.899C209.903 220.186 208.51 218.797 206.791 218.797C205.072 218.797 203.678 220.186 203.678 221.899C203.678 223.611 205.072 225 206.791 225Z" fill="#272727"/>
<path d="M221.34 225C223.059 225 224.453 223.611 224.453 221.899C224.453 220.186 223.059 218.797 221.34 218.797C219.621 218.797 218.228 220.186 218.228 221.899C218.228 223.611 219.621 225 221.34 225Z" fill="#272727"/>
<path d="M235.888 225C237.607 225 239 223.611 239 221.899C239 220.186 237.607 218.797 235.888 218.797C234.169 218.797 232.775 220.186 232.775 221.899C232.775 223.611 234.169 225 235.888 225Z" fill="#272727"/>
</g>
<defs>
<clipPath id="clip0_22_3234">
<rect width="239" height="225" fill="white"/>
</clipPath>
</defs>
</svg>
